<?xml version="1.0" encoding="iso-8859-1"?>
<!-- Generator: Adobe Illustrator 16.0.0, SVG Export Plug-In . SVG Version: 6.00 Build 0)  -->
<!DOCTYPE svg PUBLIC "-//W3C//DTD SVG 1.1//EN" "http://www.w3.org/Graphics/SVG/1.1/DTD/svg11.dtd">
<svg xmlns="http://www.w3.org/2000/svg" xmlns:xlink="http://www.w3.org/1999/xlink" version="1.1" id="Capa_1" x="0px" y="0px" width="512px" height="512px" viewBox="0 0 46.749 46.749" style="enable-background:new 0 0 46.749 46.749;" xml:space="preserve">
<g>
	<g>
		<path d="M23.374,37.607c-3.403,0-6.631-0.33-9.584-0.926c1.573,4.767,3.948,8.361,6.684,9.881    c0.951,0.119,1.918,0.187,2.901,0.187c0.983,0,1.952-0.067,2.903-0.187c2.734-1.52,5.109-5.114,6.683-9.881    C30.005,37.277,26.778,37.607,23.374,37.607z" fill="#FFFFFF"/>
		<path d="M10.891,33.854c-0.718-3.191-1.116-6.729-1.116-10.479c0-3.227,0.294-6.298,0.833-9.125    c-5.116,1.593-8.972,4.091-10.505,6.985C0.039,21.939,0,22.652,0,23.374c0,1.28,0.107,2.534,0.305,3.758    C1.988,29.93,5.845,32.329,10.891,33.854z" fill="#FFFFFF"/>
		<path d="M23.374,10.406c3.562,0,6.934,0.359,9.998,1.009c-1.553-5.431-4.107-9.569-7.094-11.229C25.326,0.068,24.358,0,23.375,0    c-0.983,0-1.95,0.068-2.901,0.186c-2.987,1.66-5.542,5.798-7.095,11.229C16.441,10.765,19.812,10.406,23.374,10.406z" fill="#FFFFFF"/>
		<path d="M33.934,13.636c-3.207-0.784-6.797-1.23-10.561-1.23c-3.761,0-7.351,0.446-10.558,1.229    c-0.665,2.995-1.041,6.295-1.041,9.739c0,3.968,0.497,7.746,1.363,11.083c3.124,0.734,6.601,1.15,10.236,1.15    c3.636,0,7.113-0.416,10.238-1.151c0.865-3.337,1.363-7.115,1.363-11.082C34.975,19.93,34.598,16.63,33.934,13.636z" fill="#FFFFFF"/>
		<path d="M46.444,27.132c0.197-1.224,0.305-2.478,0.305-3.758c0-0.722-0.038-1.435-0.102-2.141    c-1.533-2.894-5.39-5.392-10.506-6.985c0.539,2.828,0.834,5.898,0.834,9.126c0,3.75-0.398,7.289-1.117,10.479    C40.905,32.329,44.76,29.928,46.444,27.132z" fill="#FFFFFF"/>
		<path d="M35.27,36.145c-1.136,3.922-2.785,7.194-4.789,9.5c6.893-2.198,12.396-7.504,14.861-14.272    C42.88,33.405,39.411,35.055,35.27,36.145z" fill="#FFFFFF"/>
		<path d="M11.479,36.146c-4.141-1.09-7.61-2.74-10.073-4.773c2.465,6.77,7.97,12.075,14.863,14.271    C14.265,43.34,12.616,40.068,11.479,36.146z" fill="#FFFFFF"/>
		<path d="M35.641,11.965c4.293,1.177,7.84,2.962,10.252,5.152C43.789,9.525,37.954,3.486,30.481,1.103    C32.713,3.671,34.508,7.436,35.641,11.965z" fill="#FFFFFF"/>
		<path d="M11.108,11.965c1.132-4.53,2.927-8.294,5.161-10.862C8.796,3.485,2.96,9.524,0.854,17.117    C3.269,14.927,6.814,13.142,11.108,11.965z" fill="#FFFFFF"/>
	</g>
</g>
<g>
</g>
<g>
</g>
<g>
</g>
<g>
</g>
<g>
</g>
<g>
</g>
<g>
</g>
<g>
</g>
<g>
</g>
<g>
</g>
<g>
</g>
<g>
</g>
<g>
</g>
<g>
</g>
<g>
</g>
</svg>
